<?xml version="1.0" standalone="no"?><!DOCTYPE svg PUBLIC "-//W3C//DTD SVG 1.1//EN" "http://www.w3.org/Graphics/SVG/1.1/DTD/svg11.dtd"><svg t="1569726842924" class="icon" viewBox="0 0 1088 1024" version="1.1" xmlns="http://www.w3.org/2000/svg" p-id="27961" xmlns:xlink="http://www.w3.org/1999/xlink" width="212.5" height="200"><defs><style type="text/css"></style></defs><path d="M481.882098 53.542884c236.550139 0 428.339214 191.789075 428.339214 428.339214 0 236.550139-191.789075 428.339214-428.339214 428.339214-236.550139 0-428.339214-191.789075-428.339214-428.339214 0-236.550139 191.789075-428.339214 428.339214-428.339214zM508.65354 855.340724C693.910221 842.168958 842.115951 693.964192 855.340724 508.65354H722.823147c-14.724389 0-26.771442-11.994045-26.771442-26.771442 0-14.724389 12.047052-26.771442 26.771442-26.771442h132.517577c-13.224772-185.310652-161.430503-333.462412-346.687184-346.633213V240.941049c0 14.777396-12.047052 26.771442-26.771442 26.771442-14.724389 0-26.771442-11.994045-26.771442-26.771442V108.477443C269.853975 121.648244 121.648244 269.800004 108.423472 455.110656H240.941049c14.724389 0 26.771442 12.047052 26.771442 26.771442 0 14.777396-12.047052 26.771442-26.771442 26.771442H108.423472C121.648244 693.964192 269.853975 842.168958 455.110656 855.340724V722.823147c0-14.724389 12.047052-26.771442 26.771442-26.771442 14.724389 0 26.771442 12.047052 26.771442 26.771442v132.517577zM481.882098 428.361381c29.555757 0 53.542884 23.933156 53.542883 53.54192s-23.988091 53.542884-53.542883 53.542883c-29.555757 0-53.542884-23.93412-53.542884-53.542883 0-29.608764 23.988091-53.54192 53.542884-53.54192z" p-id="27962"></path></svg>