<?xml version="1.0" standalone="no"?><!DOCTYPE svg PUBLIC "-//W3C//DTD SVG 1.1//EN" "http://www.w3.org/Graphics/SVG/1.1/DTD/svg11.dtd"><svg t="1567480186735" class="icon" viewBox="0 0 1024 1024" version="1.1" xmlns="http://www.w3.org/2000/svg" p-id="25763" xmlns:xlink="http://www.w3.org/1999/xlink" width="200" height="200"><defs><style type="text/css"></style></defs><path d="M692.9 329.6L559.5 196.1l66.7-66.7c22.2-22.2 58.1-22.2 80.3 0l53.1 53.1c22.2 22.2 22.2 58.1 0 80.3l-66.7 66.8zM305.7 716.8L172.2 583.4l362.3-359.6L668 357.2 305.7 716.8zM64.8 826.4l81.4-216.9 132.3 132.3-213.7 84.6z m0 0" fill="#1296DB" p-id="25764"></path><path d="M831.4 910.6c-18.3 0-38.9-3.1-61.9-10.9-27.6-9.3-54.2-24.6-82.4-40.9-69.3-39.9-140.9-81.2-236.8-39-10.8 4.7-21.1 9.4-31.1 13.9-122 54.6-195.7 87.6-338.1 13.2-11.6-6.1-16-20.3-10-31.7 6.1-11.6 20.3-16 31.7-10 122.3 63.9 177 39.4 297.1-14.4 10.1-4.4 20.4-9.1 31.3-14 117.7-51.9 207.3-0.3 279.3 41.3 26.2 15.1 50.8 29.3 74 37.1 38.9 13.2 72.5 10.9 100.1-6.6 19.6-12.5 29.2-28.5 29.2-28.6 6.3-11.3 20.7-15.5 32-9 11.3 6.3 15.5 20.7 9 32-1.5 2.7-15.5 26.6-45.1 45.5-17.8 11.2-44 22.1-78.3 22.1z m0 0" fill="#1296DB" p-id="25765"></path></svg>