<?xml version="1.0" standalone="no"?><!DOCTYPE svg PUBLIC "-//W3C//DTD SVG 1.1//EN" "http://www.w3.org/Graphics/SVG/1.1/DTD/svg11.dtd"><svg t="1571651249016" class="icon" viewBox="0 0 1024 1024" version="1.1" xmlns="http://www.w3.org/2000/svg" p-id="2361" xmlns:xlink="http://www.w3.org/1999/xlink" width="200" height="200"><defs><style type="text/css"></style></defs><path d="M791.01606119 114.1231814c-25.81664804-27.29560582-67.84136938-27.29560582-93.65336692 0L644.2690441 170.54681126l124.82774752 132.31555252 53.09830152-56.40502699c26.10034743-27.3095582 26.10034743-71.7015421 0-99.01575082l-31.17903195-33.31840457z m-171.94975792 82.82162905l-347.4573846 369.07435105V573.8092688h30.00237726v30.00702775h30.00702777v30.00702779h30.00702776v30.00237725h30.00237727V706.72012485l352.56397384-377.45511136-125.1253993-132.32020304zM241.60189088 598.1190535l-12.90599916 13.49665136-47.10340585 180.64677284 183.92559358-57.31193464 10.19922692-11.11078593h-14.09195489v-30.00237724h-30.00702778v-30.00702777h-30.00702777v-30.00237727h-30.00237726v-30.00702776H241.60189088v-5.70189359z m-36.01122445 279.05791828v56.69802821h625.00844038v-56.69802824H205.59066645z" fill="#8a8a8a" p-id="2362"></path></svg>