<?xml version="1.0" standalone="no"?><!DOCTYPE svg PUBLIC "-//W3C//DTD SVG 1.1//EN" "http://www.w3.org/Graphics/SVG/1.1/DTD/svg11.dtd"><svg t="1569739414989" class="icon" viewBox="0 0 1024 1024" version="1.1" xmlns="http://www.w3.org/2000/svg" p-id="2474" xmlns:xlink="http://www.w3.org/1999/xlink" width="200" height="200"><defs><style type="text/css"></style></defs><path d="M929.421948 412.486542l0 0.005117c-12.841469 0-23.25361 10.390651-23.327288 23.210631l0 413.990802c0 25.784246-20.900006 46.6556-46.660716 46.6556L159.427012 896.348692c-25.75457 0-46.654576-20.871353-46.654576-46.6556l0-675.392324c0-25.783223 20.901029-46.6556 46.654576-46.6556l450.850292 0c12.870122-0.022513 23.309892-10.461259 23.309892-23.332405 0-12.888542-10.438747-23.327288-23.309892-23.327288L154.764829 80.985476c-48.970318 0-88.654132 39.682791-88.654132 88.654132l0 684.71669c0 48.970318 39.682791 88.659249 88.654132 88.659249l709.336414 0c48.966225 0 88.654132-39.693024 88.654132-88.659249L952.755376 435.697173C952.684768 422.878217 942.264441 412.486542 929.421948 412.486542z" p-id="2475"></path><path d="M934.132226 166.420287l-41.918715-41.973974c-29.389354-29.418007-74.800613-31.868825-101.211123-5.482875L347.250772 562.765197l-0.26606-0.26606-46.108131 168.961156c-2.01796 7.388271 0.094144 15.213493 5.438872 20.662599 5.420453 5.340635 13.276375 7.430226 20.634969 5.439896l168.975483-46.079478-0.138146-0.138146 443.783339-443.741383C965.976492 241.216807 963.548186 195.782012 934.132226 166.420287zM381.490597 597.247546l79.653131 79.642898-109.518323 29.922497L381.490597 597.247546zM822.364677 318.590012 492.351498 648.65231l-82.429361-82.401732 330.692654-330.683445 81.749886 83.018785L822.364677 318.590012zM906.47226 234.482429l-49.260937 49.255821-81.746816-83.026972 48.601928-48.606021 0.005117 0.005117c10.031471-10.007935 27.247574-9.102309 38.415938 2.043542l41.941228 41.941228C915.564335 207.310579 916.504754 224.502124 906.47226 234.482429z" p-id="2476"></path></svg>