<?xml version="1.0" standalone="no"?><!DOCTYPE svg PUBLIC "-//W3C//DTD SVG 1.1//EN" "http://www.w3.org/Graphics/SVG/1.1/DTD/svg11.dtd"><svg t="1572432052659" class="icon" viewBox="0 0 1024 1024" version="1.1" xmlns="http://www.w3.org/2000/svg" p-id="13619" xmlns:xlink="http://www.w3.org/1999/xlink" width="800" height="800"><defs><style type="text/css"></style></defs><path d="M128 800h20.6l38.4-62.4c41-65.4 89.8-125.6 151.6-153.2 48.8-21.8 93.4-37.8 173.4-40V704l384-256-384-256v160.6C386 358.2 295.8 394 225.4 465 120.8 570.4 128 703 128 736.4c0.2 17.8 0 43.4 0 63.6z m416-416V254.6l296.2 193.6L544 641.6V512c-182 0-289.2 49.2-384.4 210.8 0 0-17.6-338.8 384.4-338.8z" p-id="13620"></path></svg>