<?xml version="1.0" standalone="no"?><!DOCTYPE svg PUBLIC "-//W3C//DTD SVG 1.1//EN" "http://www.w3.org/Graphics/SVG/1.1/DTD/svg11.dtd"><svg t="1566178744151" class="icon" viewBox="0 0 1024 1024" version="1.1" xmlns="http://www.w3.org/2000/svg" p-id="2719" xmlns:xlink="http://www.w3.org/1999/xlink" width="200" height="200"><defs><style type="text/css"></style></defs><path d="M237.35 499.32a61.16 61.16 0 0 0-61.16 61.16v305.78a61.16 61.16 0 0 0 122.31 0V560.49a61.16 61.16 0 0 0-61.15-61.17zM543.13 71.24A61.16 61.16 0 0 0 482 132.39v733.87a61.15 61.15 0 1 0 122.3 0V132.39a61.16 61.16 0 0 0-61.17-61.15z m305.78 244.62A61.16 61.16 0 0 0 787.75 377v489.26a61.16 61.16 0 0 0 122.31 0V377a61.16 61.16 0 0 0-61.15-61.14z" p-id="2720"></path></svg>