<?xml version="1.0" standalone="no"?><!DOCTYPE svg PUBLIC "-//W3C//DTD SVG 1.1//EN" "http://www.w3.org/Graphics/SVG/1.1/DTD/svg11.dtd"><svg t="1572431911485" class="icon" viewBox="0 0 1096 1024" version="1.1" xmlns="http://www.w3.org/2000/svg" p-id="7368" xmlns:xlink="http://www.w3.org/1999/xlink" width="856.25" height="800"><defs><style type="text/css"></style></defs><path d="M1055.688379 313.024535c-25.870975-60.865248-62.934641-115.519465-110.085705-162.439488-47.15249-46.921448-102.150418-83.765482-163.315164-109.509526C718.936423 14.410162 651.968535 0.891365 582.201047 0.891365v116.059989c227.988323 0 398.350262 167.900345 398.350262 395.025827S810.441805 907.409471 582.201047 907.409471 188.329003 733.420747 188.329003 506.295265c0-43.374529-0.527688-68.886106 12.584646-109.406842l81.385181 40.70614-2.895153-160.321605-2.89658-160.321604-138.075988 82.657337L0.356546 282.264602l99.440668 54.784c-20.501393 55.875031-30.879733 114.551086-30.879732 174.928579 0 68.974529 13.585827 135.912468 40.380969 198.954072 25.870975 60.866674 62.896134 115.518039 110.047198 162.439488 47.15249 46.921448 102.071978 83.764056 163.236724 109.509526 63.351086 26.663933 130.617047 40.184156 199.931009 40.184156 69.312535 0 136.57707-13.520223 199.926729-40.184156 61.166173-25.745471 116.084234-62.588078 163.235298-109.509526 47.149638-46.921448 84.171944-101.572813 110.041494-162.439488 26.795142-63.041604 40.370986-129.979543 40.370986-198.952646 0-68.975955-13.605794-135.912468-40.39951-198.954072z" p-id="7369"></path></svg>