<?xml version="1.0" standalone="no"?><!DOCTYPE svg PUBLIC "-//W3C//DTD SVG 1.1//EN" "http://www.w3.org/Graphics/SVG/1.1/DTD/svg11.dtd"><svg t="1571649399268" class="icon" viewBox="0 0 1024 1024" version="1.1" xmlns="http://www.w3.org/2000/svg" p-id="3541" xmlns:xlink="http://www.w3.org/1999/xlink" width="200" height="200"><defs><style type="text/css"></style></defs><path d="M512 342h64v180L726 612l-32 52L512 554v-212zM554 128c212 0 384 172 384 384s-172 384-384 384c-106 0-200-42-270-112l60-62c54 54 128 88 210 88 166 0 300-132 300-298S720 214 554 214 256 346 256 512h128L212 684l-4-6L42 512h128c0-212 172-384 384-384z" p-id="3542" fill="#8a8a8a"></path></svg>