<?xml version="1.0" standalone="no"?><!DOCTYPE svg PUBLIC "-//W3C//DTD SVG 1.1//EN" "http://www.w3.org/Graphics/SVG/1.1/DTD/svg11.dtd"><svg t="1569379180478" class="icon" viewBox="0 0 1024 1024" version="1.1" xmlns="http://www.w3.org/2000/svg" p-id="2508" xmlns:xlink="http://www.w3.org/1999/xlink" width="200" height="200"><defs><style type="text/css"></style></defs><path d="M544 201.6V672c0 19.2-12.8 32-32 32s-32-12.8-32-32V211.2L358.4 332.8c-12.8 12.8-32 12.8-44.8 0-12.8-12.8-12.8-32 0-44.8l156.8-156.8c25.6-25.6 64-25.6 89.6 0L716.8 288c12.8 12.8 12.8 32 0 44.8-12.8 12.8-32 12.8-44.8 0L544 201.6zM832 608c0-19.2 12.8-32 32-32s32 12.8 32 32v160c0 54.4-41.6 96-96 96H224c-54.4 0-96-41.6-96-96V608c0-19.2 12.8-32 32-32s32 12.8 32 32v160c0 19.2 12.8 32 32 32h576c19.2 0 32-12.8 32-32V608z" p-id="2509"></path></svg>