<?xml version="1.0" standalone="no"?><!DOCTYPE svg PUBLIC "-//W3C//DTD SVG 1.1//EN" "http://www.w3.org/Graphics/SVG/1.1/DTD/svg11.dtd"><svg t="1565840075150" class="icon" viewBox="0 0 1024 1024" version="1.1" xmlns="http://www.w3.org/2000/svg" p-id="2031" xmlns:xlink="http://www.w3.org/1999/xlink" width="200" height="200"><defs><style type="text/css"></style></defs><path d="M515.9 566.1c-73.7 0-143.1-28.7-195.2-80.9-52.1-52.1-80.9-121.5-80.9-195.2s28.7-143 80.9-195.1C372.8 42.7 442.1 14 515.9 14c73.7 0 143.1 28.7 195.2 80.9C763.2 147 792 216.3 792 290.1s-28.7 143.1-80.9 195.2c-52.2 52.1-121.5 80.8-195.2 80.8z m0-512.1c-130.2 0-236.1 105.9-236.1 236.1s105.9 236.1 236.1 236.1C646 526.1 752 420.2 752 290.1S646 54 515.9 54z" fill="#888888" p-id="2032"></path><path d="M1004.3 1014h-40c0-247-201.2-448.4-448.4-448.4C268.6 565.6 67.4 767 67.4 1014h-40c0-66 12.9-129.8 38.4-190 24.6-58.2 59.8-110.3 104.7-155.2 44.9-44.9 97.1-80 155.3-104.6 60.2-25.5 124.2-38.4 190.1-38.4 65.9 0 129.9 12.9 190.1 38.4 58.2 24.6 110.4 59.8 155.3 104.7 44.9 44.9 80.1 97 104.7 155.1 25.4 60.2 38.3 124 38.3 190z" fill="#888888" p-id="2033"></path></svg>