<svg id="图层_1" data-name="图层 1" xmlns="http://www.w3.org/2000/svg" viewBox="0 0 1024 1024"><defs><style>.cls-1{fill:#b51515;}</style></defs><title>图标制作模版 (1)</title><path class="cls-1" d="M583.47,870.52c8.75,0,17.12-2.94,23.09-8.14l370.7-333.1c10.72-9.88,10.76-25.21.12-35.17L606.69,157.73c-8.86-7.81-22.62-10.41-34.71-6.51s-7.83,47.7-7.82,58.31V269.6c0,43.69,60.05,46,60.05,0h0L908.85,510,624.22,750.33V630.15c0-49.51-4.19-60.09-60.05-60.09-164.14,0-285.48,80.72-360.32,120.18,41.1-92.73,113.48-240.36,360.32-240.36,84.06,0,85.06-60.17,8.5-60.17-169.34,0-258.44,26.1-344.7,143.92-63.85,87.19-82.69,173.49-83.47,177.13-2.31,10.91-12,34.19-.72,39.58s50.51,7.47,60.06,0c1.5-1.17,136.33-110.82,360.32-120.18V810.42c0,10.53-4.31,54.48,7.76,58.34a37.55,37.55,0,0,0,11.55,1.77Zm0,0"/></svg>