<?xml version="1.0" standalone="no"?><!DOCTYPE svg PUBLIC "-//W3C//DTD SVG 1.1//EN" "http://www.w3.org/Graphics/SVG/1.1/DTD/svg11.dtd"><svg t="1573012557236" class="icon" viewBox="0 0 1024 1024" version="1.1" xmlns="http://www.w3.org/2000/svg" p-id="9857" xmlns:xlink="http://www.w3.org/1999/xlink" width="800" height="800"><defs><style type="text/css"></style></defs><path d="M887.466667 1024H136.533333a68.266667 68.266667 0 0 1-68.266666-68.266667V170.666667a68.266667 68.266667 0 0 1 68.266666-68.266667h102.4v51.2H153.6a34.133333 34.133333 0 0 0-34.133333 34.133333v750.933334a34.133333 34.133333 0 0 0 34.133333 34.133333h716.8a34.133333 34.133333 0 0 0 34.133333-34.133333V187.733333a34.133333 34.133333 0 0 0-34.133333-34.133333h-85.333333V102.4h102.4a68.266667 68.266667 0 0 1 68.266666 68.266667v785.066666a68.266667 68.266667 0 0 1-68.266666 68.266667zM358.4 750.933333h426.666667v51.2H358.4v-51.2z m0-187.733333h426.666667v51.2H358.4v-51.2z m0-187.733333h426.666667v51.2H358.4v-51.2zM682.666667 0h51.2v204.8h-51.2V0zM392.533333 102.4h238.933334v51.2H392.533333V102.4z m-102.4-102.4h51.2v204.8h-51.2V0z m-51.2 375.466667h51.2v51.2h-51.2v-51.2z m51.2 426.666666h-51.2v-51.2h51.2v51.2z m-51.2-238.933333h51.2v51.2h-51.2v-51.2z" p-id="9858"></path></svg>