<?xml version="1.0" standalone="no"?><!DOCTYPE svg PUBLIC "-//W3C//DTD SVG 1.1//EN" "http://www.w3.org/Graphics/SVG/1.1/DTD/svg11.dtd"><svg t="1566178781297" class="icon" viewBox="0 0 1024 1024" version="1.1" xmlns="http://www.w3.org/2000/svg" p-id="3463" xmlns:xlink="http://www.w3.org/1999/xlink" width="200" height="200"><defs><style type="text/css"></style></defs><path d="M960.67 455.28L558.26 709.57c-46.46 13.36-60.7-2.93-60.7-61.14V526.15C344.5 501 278.53 573.48 254.76 770.72c0 123.29-46.43 183.41-60.7 183.42-46.92 0-52.55-67.16-60.7-122.27-37.94-256.37 95-492.52 364.21-550.28v-122.3c0-18.77 2.23-46.23 18.65-55.08a50.2 50.2 0 0 1 51.84 2.51l392.62 263.8a51.15 51.15 0 0 1 0 84.76z" p-id="3464"></path></svg>