<?xml version="1.0" standalone="no"?><!DOCTYPE svg PUBLIC "-//W3C//DTD SVG 1.1//EN" "http://www.w3.org/Graphics/SVG/1.1/DTD/svg11.dtd"><svg t="1566178748154" class="icon" viewBox="0 0 1024 1024" version="1.1" xmlns="http://www.w3.org/2000/svg" p-id="2843" xmlns:xlink="http://www.w3.org/1999/xlink" width="200" height="200"><defs><style type="text/css"></style></defs><path d="M512 75C268.37 75 70.89 272.54 70.89 516.17S268.37 957.28 512 957.28s441.11-197.5 441.11-441.12S755.62 75 512 75z m-18.56 582.16c2.65 7.52-19.89 30.06-21.66 31.38-2.21 1.33-43.76-21.66-50.83-25.19 0 0-107-99-113.59-205.09l34.92-122-76-23.87c-0.45-0.44-61.88-6.19-75.59-8.4 0 0 126.85-196.25 383.22-166.63 14.14 1.32 27 1.32 34 14.14 1.33 2.65 27 24.75 27 25.19h-71.2l-15 13.26 65 38.89c-14.58 3.54-51.71 15.47-51.71 15.47l-37.57 45.09-0.44 49.06 55.69 24.75c2.65 0 10.17-25.64 10.17-25.64l87.07-51.72c1.32 0 8.4 73.38 8.4 73.38 3.09 0.44 23.87-9.28 38-17.24-4.87 17.24-37.57 84.42-37.57 84.42l-39.78 40.22 11.49 19.89-164 85.31c-7.08 3.09-13.27 8-15 15.47-6.68 24.78 12.33 61.91 14.98 69.86z m210.83-31.38S681.73 655 674.22 655s-46.85-4-46.85-4l-10.17-36.27s64.53-9.72 70.72-8.84 16.35 19.89 16.35 19.89z m-167.08 67.63c0.44 0.44 21.66-37.13 22.1-42.44 0 0 50.82 50.39 56.13 53.48s-5.31 30.94-5.31 30.94l-34.92 40.66z m133.49 177.24L607 837.5l90.61-85.75v-29.61l123.79-14.59s-47.3 141-150.72 163.1z m168.84-267c-10.61 5.3-69.84-34.48-69.84-34.48l6.63-89.72L835.1 422s15.03 176.38 4.42 181.68z" p-id="2844"></path></svg>