<?xml version="1.0" standalone="no"?><!DOCTYPE svg PUBLIC "-//W3C//DTD SVG 1.1//EN" "http://www.w3.org/Graphics/SVG/1.1/DTD/svg11.dtd"><svg t="1566178774088" class="icon" viewBox="0 0 1024 1024" version="1.1" xmlns="http://www.w3.org/2000/svg" p-id="3215" xmlns:xlink="http://www.w3.org/1999/xlink" width="200" height="200"><defs><style type="text/css"></style></defs><path d="M512 75.06c-243.62 0-441.1 197.49-441.1 441.11s197.49 441.1 441.1 441.1 441.1-197.49 441.1-441.1S755.61 75.06 512 75.06zM726.67 395.6l-250 250c-8.82 5.88-20.58 8.82-32.35 8.82-11.76 2.94-26.46-2.94-32.34-8.82L303.21 536.75c-14.7-14.7-14.7-35.29 0-50s35.29-14.7 50 0l91.16 91.16 229.37-229.37c11.77-11.76 35.29-11.76 52.93-2.94 14.7 14.71 14.7 35.29 0 50z" p-id="3216"></path></svg>