<?xml version="1.0" standalone="no"?><!DOCTYPE svg PUBLIC "-//W3C//DTD SVG 1.1//EN" "http://www.w3.org/Graphics/SVG/1.1/DTD/svg11.dtd"><svg t="1566178700865" class="icon" viewBox="0 0 1024 1024" version="1.1" xmlns="http://www.w3.org/2000/svg" p-id="1603" xmlns:xlink="http://www.w3.org/1999/xlink" width="200" height="200"><defs><style type="text/css"></style></defs><path d="M431.92 471.94a33.41 33.41 0 0 0-9.82-23.19 32.93 32.93 0 0 0-56 23.61L367.13 637a33.4 33.4 0 0 0 9.83 23.2 32.3 32.3 0 0 0 23.31 9.51l164.61-1a32.92 32.92 0 0 0-0.41-65.85l-85.52 0.54 420.7-420.79a33.47 33.47 0 0 0 9.93-23.42A32.78 32.78 0 0 0 853.13 136L432.46 556.79z m496-3.44A32.91 32.91 0 0 0 895 501.42v360.15H170.54v-724.5H528.6a32.92 32.92 0 1 0 0-65.84h-391a32.92 32.92 0 0 0-32.92 32.92v790.34a32.92 32.92 0 0 0 32.92 32.92H928a32.92 32.92 0 0 0 32.93-32.92V501.42A32.92 32.92 0 0 0 928 468.5z" p-id="1604"></path></svg>