<?xml version="1.0" standalone="no"?><!DOCTYPE svg PUBLIC "-//W3C//DTD SVG 1.1//EN" "http://www.w3.org/Graphics/SVG/1.1/DTD/svg11.dtd"><svg t="1566178784056" class="icon" viewBox="0 0 1024 1024" version="1.1" xmlns="http://www.w3.org/2000/svg" p-id="3587" xmlns:xlink="http://www.w3.org/1999/xlink" width="200" height="200"><defs><style type="text/css"></style></defs><path d="M392.18 134.6H630c25 0 46.19-18.43 46.19-41.25 0-22.62-20.79-40.89-47-41.14H391.63c-26.11 0.25-46.86 18.52-46.86 41.14s21.13 41.25 47.41 41.25z m235.76-82.4zM857 622.42c23.37 0 45.68 3.8 67.35 9.28V191.12c0-51.8-43.46-93.86-97.87-96.69 0-0.26-0.07-0.56-0.07-0.82-1.54-0.19-24.28 0-26 0h-82.86c0.95 5 7.44 9.55 7.44 14.69 0.07 38.21-14 68.17-48.87 68.17H344.68c-36.72 0-51.46-30-51.46-68.17 0.07-5.07 9.09-9.72 10-14.69l-107.77-0.45c-0.88 0-1.57 0.17-2.46 0.2v1.15c-54 3.26-96.93 45.13-96.93 96.59v636.6c0 52.27 46.44 94.85 103.52 94.85h385.19c-0.83-8.68-2.62-17.07-2.62-26 0-151.37 123.06-274.13 274.85-274.13z m-350.67 37.42c-14.76 13.23-40.73 13.2-55.51 0L312 535.38a32.58 32.58 0 0 1 0-49.55 42.63 42.63 0 0 1 55.55 0l111.05 99.54 211.17-189.55c14.75-13.27 40.72-13.23 55.51 0a32.61 32.61 0 0 1 0 49.58zM974.1 798.68l-136.72-91.07a17.61 17.61 0 0 0-18.05-0.87c-5.72 3.05-6.49 12.53-6.5 19V768c-93.75 19.94-140 101.46-126.83 190 2.84 19 4.8 42.21 21.14 42.21 5 0 21.14-20.76 21.14-63.31 8.28-68.09 31.25-93.1 84.55-84.43v42.21c0 20.09 5 25.72 21.14 21.1l140.13-87.84a17.57 17.57 0 0 0 0-29.26z" p-id="3588"></path></svg>