<?xml version="1.0" standalone="no"?><!DOCTYPE svg PUBLIC "-//W3C//DTD SVG 1.1//EN" "http://www.w3.org/Graphics/SVG/1.1/DTD/svg11.dtd"><svg t="1566178751652" class="icon" viewBox="0 0 1024 1024" version="1.1" xmlns="http://www.w3.org/2000/svg" p-id="2967" xmlns:xlink="http://www.w3.org/1999/xlink" width="200" height="200"><defs><style type="text/css"></style></defs><path d="M830.53 119.18H221c-63.33 0-102.91 46.25-110.83 100.21v593.56c0 54 47.5 100.2 102.92 100.2h506.62l213.75-177.29V219.39c0-53.96-47.46-100.21-102.93-100.21z m-95 346.89L521.78 643.36c-7.91 7.71-15.83 7.71-23.74 7.71-15.84 0-23.76-7.71-31.67-15.42L339.71 489.19c-15.84-15.42-15.84-38.55 0-54s39.58-15.42 55.41 0L498 550.86l190-154.17c15.84-7.71 39.58-7.71 55.42 7.71s7.95 38.54-7.89 61.66z" p-id="2968"></path></svg>