<?xml version="1.0" standalone="no"?><!DOCTYPE svg PUBLIC "-//W3C//DTD SVG 1.1//EN" "http://www.w3.org/Graphics/SVG/1.1/DTD/svg11.dtd"><svg t="1566178715621" class="icon" viewBox="0 0 1024 1024" version="1.1" xmlns="http://www.w3.org/2000/svg" p-id="1975" xmlns:xlink="http://www.w3.org/1999/xlink" width="200" height="200"><defs><style type="text/css"></style></defs><path d="M1004.63 427.09L851.14 826.56c-7.31 20.87-43.85 19.38-61.4 19.38-46.78 1.49-95-4.47-138.88-20.87-27.77-10.43-55.55-23.85-78.94-43.23-24.85-19.38-43.86-44.72-65.78-68.57C465.2 668.57 418.42 626.83 360 606s-119.87-19.38-179.81-6l-0.3 0.06-106.47 274.2c-10.23 28.32-51.16 10.43-40.93-16.4L300 164.75c5.44-14.26 20-16.31 30.83-11.08 67.82-14.29 139.74-15.36 206 11.08 67.24 26.83 122.8 76 169.57 132.66 48.24 58.14 105.26 93.91 179.81 101.36 30.7 3 62.86 3 93.56-3 17.56-2.96 30.71 16.42 24.86 31.32z" p-id="1976"></path></svg>