<?xml version="1.0" standalone="no"?><!DOCTYPE svg PUBLIC "-//W3C//DTD SVG 1.1//EN" "http://www.w3.org/Graphics/SVG/1.1/DTD/svg11.dtd"><svg t="1566178691505" class="icon" viewBox="0 0 1024 1024" version="1.1" xmlns="http://www.w3.org/2000/svg" p-id="1479" xmlns:xlink="http://www.w3.org/1999/xlink" width="200" height="200"><defs><style type="text/css"></style></defs><path d="M540.5 71.23c-236.05 0-428.1 192-428.1 428.09s192 428.09 428.1 428.09 428.09-192 428.09-428.09S776.54 71.23 540.5 71.23z m0 794.62c-202.11 0-366.55-164.43-366.55-366.53S338.38 132.79 540.5 132.79 907 297.22 907 499.33 742.6 865.86 540.5 865.86z m-27-496.65q7.42 6.21 18.43 6.82 12.93 1.28 35.92-15.53t24.23-26.83c0.86-6.7-1.41-17-6.78-31.05s-10.46-23-15.18-26.83a29 29 0 0 0-16.81-6.44c-12.54-0.43-23.73 5.29-33.67 17.11s-16.25 21.37-19.06 28.46-4.18 12.19-4.18 15.19c-0.43 5.2 1.06 12 4.53 20.38s7.63 14.68 12.57 18.73z m121.12 257.23l-7.36-3.28h-3.39c-3.93 0-8.24 1-21.7 7.64l-21.56 14.55a95.37 95.37 0 0 1-19.5 9.35 152.84 152.84 0 0 1-23.26 6.17c-5.53 1-10 1.75-14.75 1.5-6.69-0.8-8.57-3.42-9.26-4.41-2-2.8-2.7-8.05-2-14.81 1.06-9.89 3.87-23.47 8.37-40.36q6.94-25.92 13.46-45c4.33-12.68 9.44-25.93 15.33-39.84 5.81-13.74 10.47-23.69 13.85-29.63a100.39 100.39 0 0 1 13.89-18.18c5.8-6.34 19.4-21.18 11.56-35.44-4.26-7.68-11.74-12.3-23.48-13-5.72 0-12.06 1.24-19.34 3.78-7.6 2.65-12.43 4.68-14.31 5.74s-5 3-18.24 13.88-16.93 15.03-18.87 18.78-3.39 8.73-4.49 21.84c-0.42 4.88-2.28 14.6-9 33.68l-19.17 61.29L446 623c-4 14.44-5.48 27-4.59 38.2a107.8 107.8 0 0 0 6.53 30.3c3.85 10.17 9.21 18.46 15.89 24.64a48.42 48.42 0 0 0 26.32 12.46 51.3 51.3 0 0 0 9 0.75c8.21 0 17.77-1.65 29.26-5.06a274.12 274.12 0 0 0 35.87-13A183.89 183.89 0 0 0 592 695.74q12.15-8.37 23.94-17.2c10.52-7.91 17.18-16 20.43-24.86 2.74-7.6 5.84-16.24 0.57-23.86z" p-id="1480"></path></svg>