<svg id="图层_1" data-name="图层 1" xmlns="http://www.w3.org/2000/svg" viewBox="0 0 1024 1024"><defs><style>.cls-1{fill:#b51515;}</style></defs><title>图标制作模版 (1)</title><path class="cls-1" d="M532.52,870.52a37.55,37.55,0,0,0,11.55-1.77c12.07-3.85,7.76-47.81,7.76-58.34V630.15c224,9.36,358.82,119,360.32,120.18,9.55,7.47,48.79,5.4,60.06,0s1.6-28.66-.72-39.58c-.78-3.64-19.62-89.94-83.47-177.13-86.26-117.82-175.36-143.92-344.7-143.92-76.56,0-75.56,60.17,8.5,60.17,246.84,0,319.22,147.63,360.32,240.36C837.31,650.78,716,570.06,551.83,570.06c-55.86,0-60.05,10.58-60.05,60.09V750.33L207.14,510,491.78,269.6h0c0,46,60.05,43.69,60.05,0V209.52c0-10.61,4.28-54.45-7.82-58.31s-25.84-1.29-34.71,6.51L138.61,494.11c-10.64,10-10.6,25.29.12,35.17l370.7,333.1c6,5.19,14.34,8.14,23.09,8.14Zm0,0"/></svg>