<?xml version="1.0" standalone="no"?><!DOCTYPE svg PUBLIC "-//W3C//DTD SVG 1.1//EN" "http://www.w3.org/Graphics/SVG/1.1/DTD/svg11.dtd"><svg t="1566178721725" class="icon" viewBox="0 0 1024 1024" version="1.1" xmlns="http://www.w3.org/2000/svg" p-id="2099" xmlns:xlink="http://www.w3.org/1999/xlink" width="200" height="200"><defs><style type="text/css"></style></defs><path d="M124.71 428.44l402.41 254.29c46.45 13.36 60.7-2.93 60.7-61.14V499.31c153.06-25.13 219 47.33 242.8 244.56 0 123.29 46.43 183.41 60.7 183.42 46.92 0 52.54-67.16 60.7-122.27C990 548.65 857 312.5 587.83 254.74V132.45c0-18.77-2.24-46.23-18.66-55.08a50.19 50.19 0 0 0-51.83 2.51l-392.63 263.8a51.16 51.16 0 0 0 0 84.76z" p-id="2100"></path></svg>