<?xml version="1.0" standalone="no"?><!DOCTYPE svg PUBLIC "-//W3C//DTD SVG 1.1//EN" "http://www.w3.org/Graphics/SVG/1.1/DTD/svg11.dtd"><svg t="1566178778404" class="icon" viewBox="0 0 1024 1024" version="1.1" xmlns="http://www.w3.org/2000/svg" p-id="3339" xmlns:xlink="http://www.w3.org/1999/xlink" width="200" height="200"><defs><style type="text/css"></style></defs><path d="M808.18 98.58c-0.01-0.07-0.01-0.05 0 0z m0.07 0.83c0-0.2-0.06-0.68-0.07-0.83-135.67 0-651.94-0.43-651.94-0.43-0.9 0-1.62 0.16-2.53 0.2v1.17c-55.76 3.3-100.16 45.8-100.16 98V855.5c0 54.38 48 98.67 107 98.67h641.9c59 0 107-44.29 107-98.67V197.56c-0.06-52.56-44.96-95.27-101.2-98.14zM516.4 750.07a51.19 51.19 0 0 1-36.58 14.48q-27.21 0-43.31-14.92t-16.1-35.41q0-21.65 16.39-35.85t39.8-14.2q22.53 0 38.78 14.2t16.24 35.85q0 21.37-15.22 35.85z m85.45-282q-14.34 26.34-52.68 57.65-30.73 25.76-38 40.09a66 66 0 0 0-7.32 30.44 64.91 64.91 0 0 0 7.9 30.72h-79.3a112.29 112.29 0 0 1-7-39.21q0-49.45 46.83-89 29-24.58 39.21-41a65.59 65.59 0 0 0 10.24-35.41q0-20.77-14.63-34.09T469.28 375q-54.14 0-100.67 41.56v-90.68q48.87-29.26 111.2-29.26 63.21 0 99.79 29.26t36.58 83.4q0.01 32.49-14.33 58.82z" p-id="3340"></path></svg>