<?xml version="1.0" standalone="no"?><!DOCTYPE svg PUBLIC "-//W3C//DTD SVG 1.1//EN" "http://www.w3.org/Graphics/SVG/1.1/DTD/svg11.dtd"><svg t="1572319138001" class="icon" viewBox="0 0 1088 1024" version="1.1" xmlns="http://www.w3.org/2000/svg" p-id="14997" xmlns:xlink="http://www.w3.org/1999/xlink" width="212.5" height="200"><defs><style type="text/css"></style></defs><path d="M704 480c0 19.2-12.8 32-32 32h-640c-19.2 0-32-12.8-32-32s12.8-32 32-32h640c19.2 0 32 12.8 32 32z" fill="#3481DE" p-id="14998"></path><path d="M684.8 454.4c12.8 12.8 12.8 32 0 44.8l-179.2 179.2c-12.8 12.8-32 12.8-44.8 0-12.8-12.8-12.8-32 0-44.8l179.2-179.2c12.8-6.4 32-6.4 44.8 0z" fill="#3481DE" p-id="14999"></path><path d="M454.4 262.4c-12.8 12.8-12.8 32 0 44.8l179.2 179.2c12.8 12.8 32 12.8 44.8 0 12.8-12.8 12.8-32 0-44.8l-179.2-179.2c-6.4-6.4-32-6.4-44.8 0z" fill="#3481DE" p-id="15000"></path><path d="M89.6 704c76.8 185.6 262.4 320 473.6 320 281.6 0 512-230.4 512-512s-230.4-512-512-512c-192 0-352 102.4-441.6 256h76.8c83.2-115.2 217.6-192 364.8-192 249.6 0 448 198.4 448 448s-198.4 448-448 448c-179.2 0-332.8-102.4-403.2-256H89.6z" fill="#3481DE" p-id="15001"></path></svg>