<?xml version="1.0" standalone="no"?><!DOCTYPE svg PUBLIC "-//W3C//DTD SVG 1.1//EN" "http://www.w3.org/Graphics/SVG/1.1/DTD/svg11.dtd"><svg t="1573011000994" class="icon" viewBox="0 0 1024 1024" version="1.1" xmlns="http://www.w3.org/2000/svg" p-id="7061" xmlns:xlink="http://www.w3.org/1999/xlink" width="800" height="800"><defs><style type="text/css"></style></defs><path d="M836.282182 1024H187.717818A188.043636 188.043636 0 0 1 0 836.282182V187.717818A188.043636 188.043636 0 0 1 187.717818 0h648.564364A188.043636 188.043636 0 0 1 1024 187.717818v648.564364A188.043636 188.043636 0 0 1 836.282182 1024zM196.142545 46.545455A149.597091 149.597091 0 0 0 46.545455 196.142545v631.71491A149.597091 149.597091 0 0 0 196.142545 977.454545h631.71491A149.597091 149.597091 0 0 0 977.454545 827.857455V196.142545A149.597091 149.597091 0 0 0 827.857455 46.545455H196.142545z" p-id="7062"></path><path d="M805.794909 420.398545h-16.756364a290.443636 290.443636 0 0 0-16.384-39.470545l11.915637-11.915636a78.568727 78.568727 0 0 0 0-111.709091l-18.618182-18.618182a80.430545 80.430545 0 0 0-111.709091 0l-11.170909 12.660364a283.741091 283.741091 0 0 0-39.470545-16.384v-16.756364c0-43.380364-35.188364-78.568727-78.568728-78.568727h-26.065454c-43.380364 0-78.568727 35.188364-78.568728 78.568727v16.756364a287.464727 287.464727 0 0 0-39.470545 16.384l-11.915636-11.915637a80.430545 80.430545 0 0 0-111.709091 0l-18.618182 18.618182a78.568727 78.568727 0 0 0 0 111.709091l11.915636 11.915636a291.560727 291.560727 0 0 0-16.384 39.470546h-16.011636c-43.101091 0-78.196364 34.722909-78.568727 77.824v26.065454c0 43.380364 35.188364 78.568727 78.568727 78.568728h16.756364c4.468364 13.544727 9.960727 26.717091 16.384 39.470545l-11.915637 11.915636a78.568727 78.568727 0 0 0 0 111.709091l18.618182 18.618182c31.185455 30.068364 80.523636 30.068364 111.709091 0l11.915636-11.915636c12.753455 6.423273 25.925818 11.915636 39.470546 16.384v16.756363c0.418909 42.821818 35.002182 77.405091 77.824 77.824h26.065454c43.380364 0 78.568727-35.188364 78.568728-78.568727v-16.756364c13.498182-4.514909 26.717091-9.960727 39.470545-16.384l11.915636 11.915637c31.185455 30.068364 80.523636 30.068364 111.709091 0l18.618182-18.618182a78.941091 78.941091 0 0 0 0-111.709091l-12.660364-11.170909c6.469818-12.706909 11.915636-25.925818 16.384-39.470545h16.756364c43.380364 0 78.568727-35.188364 78.568727-78.568728v-26.065454c0-43.380364-35.188364-78.568727-78.568727-78.568728z m41.332364 105.37891a27.554909 27.554909 0 0 1-27.554909 27.554909h-37.236364a27.554909 27.554909 0 0 0-26.437818 20.48c-5.911273 23.272727-15.220364 45.614545-27.554909 66.280727a27.554909 27.554909 0 0 0 4.096 33.512727l26.810182 26.810182a27.554909 27.554909 0 0 1 0 37.236364l-19.36291 19.362909c-10.705455 9.309091-26.530909 9.309091-37.236363 0l-26.810182-26.810182a27.554909 27.554909 0 0 0-33.512727-4.096 250.228364 250.228364 0 0 1-66.280728 27.554909 27.554909 27.554909 0 0 0-20.852363 26.437818v37.236364a27.554909 27.554909 0 0 1-27.554909 27.554909h-27.554909a27.554909 27.554909 0 0 1-27.554909-27.554909v-37.236364a27.554909 27.554909 0 0 0-20.48-26.437818 246.504727 246.504727 0 0 1-66.280728-27.554909 27.554909 27.554909 0 0 0-33.512727 4.096l-26.810182 26.810182c-10.705455 9.309091-26.530909 9.309091-37.236363 0l-19.36291-19.362909a27.554909 27.554909 0 0 1 0-37.236364l26.810182-26.810182a27.554909 27.554909 0 0 0 4.096-33.512727 247.249455 247.249455 0 0 1-27.554909-66.280727 27.554909 27.554909 0 0 0-26.437818-20.852364h-37.236364a27.554909 27.554909 0 0 1-31.650909-27.182545v-27.55491a27.554909 27.554909 0 0 1 27.554909-27.554909h37.236364a27.554909 27.554909 0 0 0 26.437818-20.852363c5.957818-23.272727 15.266909-45.614545 27.554909-66.280728a27.182545 27.182545 0 0 0-4.096-33.512727l-26.810182-26.810182a27.554909 27.554909 0 0 1 0-37.236363l19.36291-19.362909c10.705455-9.309091 26.530909-9.309091 37.236363 0l26.810182 26.810181c8.936727 8.843636 22.714182 10.519273 33.512727 4.096A249.111273 249.111273 0 0 1 447.953455 269.963636a27.554909 27.554909 0 0 0 20.48-26.437818v-37.236363a27.554909 27.554909 0 0 1 29.78909-29.416728h27.55491c15.220364 0 27.554909 12.334545 27.554909 27.554909v37.236364c0 12.567273 8.610909 23.505455 20.852363 26.437818 23.272727 5.957818 45.614545 15.220364 66.280728 27.554909a27.554909 27.554909 0 0 0 33.512727-4.096l26.810182-26.810182a27.927273 27.927273 0 0 1 37.236363 0l19.362909 19.36291a27.182545 27.182545 0 0 1 0 37.236363l-26.810181 26.810182a27.554909 27.554909 0 0 0-4.096 33.512727c12.334545 20.619636 21.643636 42.961455 27.554909 66.280728a27.554909 27.554909 0 0 0 26.437818 20.48h37.236363c15.220364 0 27.554909 12.334545 27.55491 27.554909v27.554909l1.861818 2.234182z" p-id="7063"></path><path d="M512 372.363636a139.636364 139.636364 0 1 0 0 279.272728 139.636364 139.636364 0 0 0 0-279.272728z m0 232.727273a93.090909 93.090909 0 1 1 0-186.181818 93.090909 93.090909 0 0 1 0 186.181818z" p-id="7064"></path></svg>