<?xml version="1.0" standalone="no"?><!DOCTYPE svg PUBLIC "-//W3C//DTD SVG 1.1//EN" "http://www.w3.org/Graphics/SVG/1.1/DTD/svg11.dtd"><svg t="1566178793055" class="icon" viewBox="0 0 1024 1024" version="1.1" xmlns="http://www.w3.org/2000/svg" p-id="3835" xmlns:xlink="http://www.w3.org/1999/xlink" width="200" height="200"><defs><style type="text/css"></style></defs><path d="M887.15 252.6c0-51.29-42.95-86.75-91.61-86.75l-84.67-2.61v58.81c0 31.34-24.45 88.22-58.81 88.22H358c-31.49 0-58.81-54-58.81-88.22v-58.8l-84.78-0.07c-51.53 0-91.61 38.14-91.61 86.58v587c0 51.29 42.94 91.18 91.61 91.18h581.12c51.53 0 91.61-42.74 91.61-91.18V617.32L758.32 776.88 744 768.33c-14.31-11.4-14.31-28.49-5.73-42.74l77.3-94-22.9-19.94-77.3 94c-11.45 14.25-28.62 14.25-42.94 5.7L661 702.8l226.15-276.39z m-373.6 466.09l-243.71 2.94c-17.61 0-29.36-14.71-29.36-29.41 0-17.65 14.68-29.41 29.36-29.41H510.6v2.94c14.69 2.94 23.5 14.7 23.5 29.41 0 8.84-8.81 20.58-20.55 23.53z m221.87 83.83l-88.74 34.19c-11.45 5.7-22.91-5.7-20-17.09l14.32-94z m-77.48-289.3v2.64H270c-17.77 0-29.62-13.21-29.62-26.43 0-18.5 14.81-31.71 29.62-31.71h387.94v2.64c14.81 2.65 23.69 13.22 23.69 26.43s-8.88 23.8-23.69 26.44zM387.39 251.47h235.26c15.23 0 29.56-14.3 29.56-28.73v-60.6l-29.56 1.1v-29.4c0-17.31-16.71-29.41-29.4-29.41h-166.9c-15.22 0-39 15-39 29.4v29.41l-29.55-1.1v60.6c-2.5 17.32 11.83 28.73 29.59 28.73z" p-id="3836"></path></svg>