<svg id="图层_1" data-name="图层 1" xmlns="http://www.w3.org/2000/svg" viewBox="0 0 1024 1024"><defs><style>.cls-1{fill:#b51515;}</style></defs><title>图标制作模版 (1)</title><path class="cls-1" d="M925.52,346.81A420.26,420.26,0,0,0,700.79,122.37a414.18,414.18,0,0,0-164.08-33v81.93a340,340,0,1,1-340.56,339.4A352,352,0,0,1,212,406.7l77.2,42.69V185L176.16,253.86,58.28,321.33l82,43.37a408.34,408.34,0,0,0-25.51,143.88,422.21,422.21,0,0,0,421.91,422A414,414,0,0,0,835.22,806.68a408.87,408.87,0,0,0,90.3-133.56,412.52,412.52,0,0,0,0-328.39Zm0,0"/></svg>